<?xml version="1.0" encoding="UTF-8" standalone="no"?>
<!DOCTYPE svg PUBLIC "-//W3C//DTD SVG 1.1//EN"
 "http://www.w3.org/Graphics/SVG/1.1/DTD/svg11.dtd">
<!-- Generated by graphviz version 2.47.2 (20210527.0053)
 -->
<!-- Pages: 1 -->
<svg width="309pt" height="233pt"
 viewBox="0.00 0.00 308.54 233.00" xmlns="http://www.w3.org/2000/svg" xmlns:xlink="http://www.w3.org/1999/xlink">
<g id="graph0" class="graph" transform="scale(1 1) rotate(0) translate(4 229)">
<polygon fill="white" stroke="transparent" points="-4,4 -4,-229 304.54,-229 304.54,4 -4,4"/>
<!-- 0 -->
<g id="node1" class="node">
<title>0</title>
<ellipse fill="none" stroke="black" cx="142.3" cy="-105" rx="57.39" ry="18"/>
<text text-anchor="middle" x="142.3" y="-101.3" font-family="Times,serif" font-size="14.00">/usr/bin/wget</text>
<text text-anchor="middle" x="46.6" y="-126.8" font-family="Times,serif" font-size="14.00">LinuxFilepath</text>
</g>
<!-- 2 -->
<g id="node3" class="node">
<title>2</title>
<ellipse fill="none" stroke="black" cx="66.3" cy="-18" rx="53.09" ry="18"/>
<text text-anchor="middle" x="66.3" y="-14.3" font-family="Times,serif" font-size="14.00">162.125.6.6</text>
<text text-anchor="middle" x="6.5" y="-39.8" font-family="Times,serif" font-size="14.00">IP</text>
</g>
<!-- 0&#45;&gt;2 -->
<g id="edge2" class="edge">
<title>0&#45;&gt;2</title>
<path fill="none" stroke="black" d="M127.28,-87.21C116.07,-74.67 100.58,-57.35 88.02,-43.3"/>
<polygon fill="black" stroke="black" points="90.3,-40.59 81.02,-35.47 85.08,-45.26 90.3,-40.59"/>
<text text-anchor="middle" x="136.3" y="-57.8" font-family="Times,serif" font-size="14.00">download</text>
<text text-anchor="middle" x="95.98" y="-64.94" font-family="Times,serif" font-size="14.00">[1]</text>
</g>
<!-- 3 -->
<g id="node4" class="node">
<title>3</title>
<ellipse fill="none" stroke="black" cx="219.3" cy="-18" rx="81.49" ry="18"/>
<text text-anchor="middle" x="219.3" y="-14.3" font-family="Times,serif" font-size="14.00">sysrep_exp_data.txt</text>
<text text-anchor="middle" x="112.05" y="-39.8" font-family="Times,serif" font-size="14.00">Filename</text>
</g>
<!-- 0&#45;&gt;3 -->
<g id="edge3" class="edge">
<title>0&#45;&gt;3</title>
<path fill="none" stroke="black" d="M157.14,-87.61C168.5,-75.07 184.34,-57.59 197.19,-43.41"/>
<polygon fill="black" stroke="black" points="199.85,-45.68 203.97,-35.92 194.66,-40.98 199.85,-45.68"/>
<text text-anchor="middle" x="200.3" y="-57.8" font-family="Times,serif" font-size="14.00">write</text>
<text text-anchor="middle" x="172.55" y="-65.57" font-family="Times,serif" font-size="14.00">[2]</text>
</g>
<!-- 1 -->
<g id="node2" class="node">
<title>1</title>
<ellipse fill="none" stroke="black" cx="142.3" cy="-192" rx="42.79" ry="18"/>
<text text-anchor="middle" x="142.3" y="-188.3" font-family="Times,serif" font-size="14.00">/bin/bash</text>
<text text-anchor="middle" x="60.9" y="-213.8" font-family="Times,serif" font-size="14.00">LinuxFilepath</text>
</g>
<!-- 1&#45;&gt;0 -->
<g id="edge1" class="edge">
<title>1&#45;&gt;0</title>
<path fill="none" stroke="black" d="M142.3,-173.8C142.3,-162.16 142.3,-146.55 142.3,-133.24"/>
<polygon fill="black" stroke="black" points="145.8,-133.18 142.3,-123.18 138.8,-133.18 145.8,-133.18"/>
<text text-anchor="middle" x="154.3" y="-144.8" font-family="Times,serif" font-size="14.00">start</text>
<text text-anchor="middle" x="134.3" y="-151.99" font-family="Times,serif" font-size="14.00">[0]</text>
</g>
</g>
</svg>
