<?xml version="1.0" encoding="UTF-8" standalone="no"?>
<!DOCTYPE svg PUBLIC "-//W3C//DTD SVG 1.1//EN"
 "http://www.w3.org/Graphics/SVG/1.1/DTD/svg11.dtd">
<!-- Generated by graphviz version 2.47.2 (20210527.0053)
 -->
<!-- Pages: 1 -->
<svg width="614pt" height="260pt"
 viewBox="0.00 0.00 613.88 260.00" xmlns="http://www.w3.org/2000/svg" xmlns:xlink="http://www.w3.org/1999/xlink">
<g id="graph0" class="graph" transform="scale(1 1) rotate(0) translate(4 256)">
<polygon fill="white" stroke="transparent" points="-4,4 -4,-256 609.88,-256 609.88,4 -4,4"/>
<!-- [0]7_20 -->
<g id="node1" class="node">
<title>[0]7_20</title>
<ellipse fill="gold" stroke="black" cx="108.54" cy="-90" rx="108.58" ry="18"/>
<text text-anchor="middle" x="108.54" y="-86.3" font-family="Times,serif" font-size="14.00">/usr/bin/wget|LinuxFilepath</text>
</g>
<!-- [0]29_36 -->
<g id="node2" class="node">
<title>[0]29_36</title>
<ellipse fill="grey" stroke="black" cx="233.54" cy="-162" rx="47.39" ry="18"/>
<text text-anchor="middle" x="233.54" y="-158.3" font-family="Times,serif" font-size="14.00">started|OP</text>
</g>
<!-- [0]29_36&#45;&gt;[0]7_20 -->
<g id="edge1" class="edge">
<title>[0]29_36&#45;&gt;[0]7_20</title>
<path fill="none" stroke="black" d="M207.94,-146.67C190.35,-136.81 166.68,-123.56 146.86,-112.46"/>
<polygon fill="black" stroke="black" points="148.49,-109.36 138.05,-107.53 145.07,-115.47 148.49,-109.36"/>
<text text-anchor="middle" x="146.26" y="-130.76" font-family="Times,serif" font-size="14.00">nsubjpass</text>
</g>
<!-- [0]37_39 -->
<g id="node3" class="node">
<title>[0]37_39</title>
<ellipse fill="none" stroke="black" cx="262.54" cy="-90" rx="27" ry="18"/>
<text text-anchor="middle" x="262.54" y="-86.3" font-family="Times,serif" font-size="14.00">by</text>
</g>
<!-- [0]29_36&#45;&gt;[0]37_39 -->
<g id="edge2" class="edge">
<title>[0]29_36&#45;&gt;[0]37_39</title>
<path fill="none" stroke="black" d="M240.56,-144.05C243.91,-135.97 247.99,-126.12 251.72,-117.11"/>
<polygon fill="black" stroke="black" points="254.99,-118.37 255.58,-107.79 248.52,-115.69 254.99,-118.37"/>
<text text-anchor="middle" x="232.97" y="-129.96" font-family="Times,serif" font-size="14.00">agent</text>
</g>
<!-- [0]40_49 -->
<g id="node4" class="node">
<title>[0]40_49</title>
<ellipse fill="gold" stroke="black" cx="260.54" cy="-18" rx="94.78" ry="18"/>
<text text-anchor="middle" x="260.54" y="-14.3" font-family="Times,serif" font-size="14.00">/bin/bash|LinuxFilepath</text>
</g>
<!-- [0]37_39&#45;&gt;[0]40_49 -->
<g id="edge3" class="edge">
<title>[0]37_39&#45;&gt;[0]40_49</title>
<path fill="none" stroke="black" d="M262.05,-71.7C261.83,-63.98 261.56,-54.71 261.32,-46.11"/>
<polygon fill="black" stroke="black" points="264.81,-46 261.03,-36.1 257.82,-46.2 264.81,-46"/>
<text text-anchor="middle" x="249.04" y="-57.69" font-family="Times,serif" font-size="14.00">pobj</text>
</g>
<!-- [2]0_2 -->
<g id="node5" class="node">
<title>[2]0_2</title>
<ellipse fill="gold" stroke="black" cx="123.54" cy="-162" rx="29.5" ry="18"/>
<text text-anchor="middle" x="123.54" y="-158.3" font-family="Times,serif" font-size="14.00">It|PN</text>
</g>
<!-- [2]0_2&#45;&gt;[0]7_20 -->
<g id="edge4" class="edge">
<title>[2]0_2&#45;&gt;[0]7_20</title>
<path fill="none" stroke="black" stroke-dasharray="1,5" d="M119.91,-144.05C118.24,-136.26 116.22,-126.82 114.34,-118.08"/>
<polygon fill="black" stroke="black" points="117.76,-117.32 112.24,-108.28 110.92,-118.79 117.76,-117.32"/>
<text text-anchor="middle" x="108.04" y="-129.79" font-family="Times,serif" font-size="14.00">ref</text>
</g>
<!-- [2]3_12 -->
<g id="node6" class="node">
<title>[2]3_12</title>
<ellipse fill="grey" stroke="black" cx="376.54" cy="-234" rx="61.99" ry="18"/>
<text text-anchor="middle" x="376.54" y="-230.3" font-family="Times,serif" font-size="14.00">downloads|OP</text>
</g>
<!-- [2]3_12&#45;&gt;[2]0_2 -->
<g id="edge5" class="edge">
<title>[2]3_12&#45;&gt;[2]0_2</title>
<path fill="none" stroke="black" d="M331.33,-221.57C290.89,-211.21 230.07,-195.26 177.54,-180 171.35,-178.2 164.78,-176.21 158.44,-174.24"/>
<polygon fill="black" stroke="black" points="159.33,-170.85 148.74,-171.19 157.23,-177.53 159.33,-170.85"/>
<text text-anchor="middle" x="224.91" y="-201.27" font-family="Times,serif" font-size="14.00">nsubj</text>
</g>
<!-- [2]23_27 -->
<g id="node7" class="node">
<title>[2]23_27</title>
<ellipse fill="none" stroke="black" cx="376.54" cy="-162" rx="28.7" ry="18"/>
<text text-anchor="middle" x="376.54" y="-158.3" font-family="Times,serif" font-size="14.00">from</text>
</g>
<!-- [2]3_12&#45;&gt;[2]23_27 -->
<g id="edge6" class="edge">
<title>[2]3_12&#45;&gt;[2]23_27</title>
<path fill="none" stroke="black" d="M376.54,-215.7C376.54,-207.98 376.54,-198.71 376.54,-190.11"/>
<polygon fill="black" stroke="black" points="380.04,-190.1 376.54,-180.1 373.04,-190.1 380.04,-190.1"/>
<text text-anchor="middle" x="364.04" y="-201.69" font-family="Times,serif" font-size="14.00">prep</text>
</g>
<!-- [2]46_52 -->
<g id="node9" class="node">
<title>[2]46_52</title>
<ellipse fill="grey" stroke="black" cx="477.54" cy="-162" rx="45.49" ry="18"/>
<text text-anchor="middle" x="477.54" y="-158.3" font-family="Times,serif" font-size="14.00">writes|OP</text>
</g>
<!-- [2]3_12&#45;&gt;[2]46_52 -->
<g id="edge8" class="edge">
<title>[2]3_12&#45;&gt;[2]46_52</title>
<path fill="none" stroke="black" d="M399.46,-217.12C413.57,-207.34 431.82,-194.69 447.13,-184.08"/>
<polygon fill="black" stroke="black" points="449.53,-186.67 455.75,-178.1 445.54,-180.92 449.53,-186.67"/>
<text text-anchor="middle" x="415.88" y="-201.22" font-family="Times,serif" font-size="14.00">conj</text>
</g>
<!-- [2]28_39 -->
<g id="node8" class="node">
<title>[2]28_39</title>
<ellipse fill="gold" stroke="black" cx="376.54" cy="-90" rx="63.09" ry="18"/>
<text text-anchor="middle" x="376.54" y="-86.3" font-family="Times,serif" font-size="14.00">162.125.6.6|IP</text>
</g>
<!-- [2]23_27&#45;&gt;[2]28_39 -->
<g id="edge7" class="edge">
<title>[2]23_27&#45;&gt;[2]28_39</title>
<path fill="none" stroke="black" d="M376.54,-143.7C376.54,-135.98 376.54,-126.71 376.54,-118.11"/>
<polygon fill="black" stroke="black" points="380.04,-118.1 376.54,-108.1 373.04,-118.1 380.04,-118.1"/>
<text text-anchor="middle" x="364.04" y="-129.69" font-family="Times,serif" font-size="14.00">pobj</text>
</g>
<!-- [2]62_64 -->
<g id="node10" class="node">
<title>[2]62_64</title>
<ellipse fill="none" stroke="black" cx="487.54" cy="-90" rx="27" ry="18"/>
<text text-anchor="middle" x="487.54" y="-86.3" font-family="Times,serif" font-size="14.00">to</text>
</g>
<!-- [2]46_52&#45;&gt;[2]62_64 -->
<g id="edge9" class="edge">
<title>[2]46_52&#45;&gt;[2]62_64</title>
<path fill="none" stroke="black" d="M480.01,-143.7C481.11,-135.98 482.44,-126.71 483.67,-118.11"/>
<polygon fill="black" stroke="black" points="487.15,-118.5 485.1,-108.1 480.22,-117.51 487.15,-118.5"/>
<text text-anchor="middle" x="470.06" y="-129.69" font-family="Times,serif" font-size="14.00">prep</text>
</g>
<!-- [2]65_84 -->
<g id="node11" class="node">
<title>[2]65_84</title>
<ellipse fill="gold" stroke="black" cx="489.54" cy="-18" rx="116.18" ry="18"/>
<text text-anchor="middle" x="489.54" y="-14.3" font-family="Times,serif" font-size="14.00">sysrep_exp_data.txt|Filename</text>
</g>
<!-- [2]62_64&#45;&gt;[2]65_84 -->
<g id="edge10" class="edge">
<title>[2]62_64&#45;&gt;[2]65_84</title>
<path fill="none" stroke="black" d="M488.03,-71.7C488.26,-63.98 488.52,-54.71 488.77,-46.11"/>
<polygon fill="black" stroke="black" points="492.26,-46.2 489.05,-36.1 485.27,-46 492.26,-46.2"/>
<text text-anchor="middle" x="476.04" y="-57.69" font-family="Times,serif" font-size="14.00">pobj</text>
</g>
</g>
</svg>
